TestIreland
version=1
nRows=25
nColumns=25
inDegrees=yes
endheader
time	pelvis_tilt	pelvis_list	pelvis_rotation	pelvis_tx	pelvis_ty	pelvis_tz	hip_flexion_r	hip_adduction_r	hip_rotation_r	knee_flexion_r	knee_adduction_r	knee_rotation_r	ankle_angle_r	subtalar_angle_r	mtp_angle_r	hip_flexion_l	hip_adduction_l	hip_rotation_l	knee_flexion_l	knee_adduction_l	knee_rotation_l	ankle_angle_l	subtalar_angle_l	mtp_angle_l
3.780000	0.000000	0.000000	0.000000	0.000000	0.000000	0.000000	27.970031	-1.217772	-1.520054	19.908962	3.455722	-19.720207	4.248702	-4.456037	0.000000	-3.105740	2.358916	6.216327	9.283438	6.516405	-10.664911	11.177612	-16.020981	0.000000
3.785000	0.000000	0.000000	0.000000	0.000000	0.000000	0.000000	27.772714	-1.235050	-1.100017	17.798425	3.559818	-20.398849	3.941528	-4.419829	0.000000	-3.618181	2.359118	5.779796	9.203220	6.489429	-10.234890	11.824639	-15.993427	0.000000
3.790000	0.000000	0.000000	0.000000	0.000000	0.000000	0.000000	27.573019	-1.265975	-0.720603	15.746901	3.628889	-21.022277	3.761245	-4.347163	0.000000	-4.123773	2.357616	5.377236	9.137190	6.471473	-9.841347	12.443998	-15.990419	0.000000
3.795000	0.000000	0.000000	0.000000	0.000000	0.000000	0.000000	27.371000	-1.307366	-0.384227	13.757420	3.662064	-21.597485	3.669497	-4.279580	0.000000	-4.621373	2.359056	5.003606	9.093183	6.458633	-9.455677	12.944140	-15.999040	0.000000
3.800000	0.000000	0.000000	0.000000	0.000000	0.000000	0.000000	27.154237	-1.366863	-0.106935	11.841926	3.656854	-22.157026	3.560213	-4.131017	0.000000	-5.118868	2.362936	4.659799	9.062835	6.436613	-9.074518	13.236417	-16.089451	0.000000
3.805000	0.000000	0.000000	0.000000	0.000000	0.000000	0.000000	26.954809	-1.421588	0.136759	9.995013	3.640650	-22.665472	3.510835	-4.091097	0.000000	-5.601209	2.359978	4.342243	9.052552	6.414791	-8.747816	13.351473	-16.105946	0.000000
3.810000	0.000000	0.000000	0.000000	0.000000	0.000000	0.000000	26.801864	-1.486404	0.344329	8.261390	3.610156	-23.095261	3.380875	-3.969296	0.000000	-6.043285	2.359939	4.029543	9.068912	6.395560	-8.430208	13.358142	-16.127326	0.000000
3.815000	0.000000	0.000000	0.000000	0.000000	0.000000	0.000000	26.672684	-1.553667	0.512104	6.642013	3.563920	-23.451479	3.235778	-3.838666	0.000000	-6.468259	2.358014	3.699696	9.100374	6.364748	-8.098953	13.349502	-16.157798	0.000000
3.820000	0.000000	0.000000	0.000000	0.000000	0.000000	0.000000	26.553073	-1.628142	0.631307	5.141401	3.517286	-23.704237	3.046306	-3.751612	0.000000	-6.884657	2.351630	3.402544	9.157013	6.333118	-7.796295	13.384512	-16.127519	0.000000
3.825000	0.000000	0.000000	0.000000	0.000000	0.000000	0.000000	26.487618	-1.696404	0.709595	3.785210	3.467572	-23.850857	2.741350	-3.738570	0.000000	-7.264977	2.330915	3.134641	9.244882	6.306747	-7.511264	13.452034	-16.108237	0.000000
3.830000	0.000000	0.000000	0.000000	0.000000	0.000000	0.000000	26.452162	-1.764353	0.745080	2.611563	3.423247	-23.879327	2.411042	-3.604615	0.000000	-7.635485	2.302579	2.877658	9.337504	6.278111	-7.211169	13.509836	-16.077302	0.000000
3.835000	0.000000	0.000000	0.000000	0.000000	0.000000	0.000000	26.442124	-1.840131	0.720844	1.589364	3.389476	-23.799173	2.242413	-3.542661	0.000000	-7.985987	2.265192	2.654918	9.447563	6.241663	-6.947806	13.565874	-16.006438	0.000000
3.840000	0.000000	0.000000	0.000000	0.000000	0.000000	0.000000	26.475921	-1.898717	0.671797	0.752408	3.355867	-23.639135	2.087194	-3.469809	0.000000	-8.312590	2.207621	2.440807	9.586250	6.215159	-6.697388	13.609108	-15.963243	0.000000
3.845000	0.000000	0.000000	0.000000	0.000000	0.000000	0.000000	26.553747	-1.936502	0.598639	0.135473	3.323756	-23.385868	1.972878	-3.276152	0.000000	-8.622509	2.130392	2.220896	9.747467	6.181022	-6.427645	13.603993	-15.806014	0.000000
3.850000	0.000000	0.000000	0.000000	0.000000	0.000000	0.000000	26.666481	-1.945943	0.501107	-0.285227	3.292644	-23.049410	2.068044	-3.086044	0.000000	-8.924828	2.032298	1.995693	9.909728	6.139997	-6.197843	13.553360	-15.657604	0.000000
3.855000	0.000000	0.000000	0.000000	0.000000	0.000000	0.000000	26.827094	-1.963241	0.366833	-0.467161	3.272455	-22.648022	2.168901	-2.830162	0.000000	-9.203325	1.925173	1.817430	10.100800	6.098236	-5.973728	13.477216	-15.585257	0.000000
3.860000	0.000000	0.000000	0.000000	0.000000	0.000000	0.000000	27.022617	-1.942774	0.238461	-0.397372	3.252714	-22.177218	2.211784	-2.571039	0.000000	-9.493825	1.793118	1.627248	10.301559	6.064498	-5.779076	13.337615	-15.462142	0.000000
3.865000	0.000000	0.000000	0.000000	0.000000	0.000000	0.000000	27.282367	-1.883671	0.103094	-0.078281	3.234032	-21.658294	2.161230	-2.476244	0.000000	-9.756054	1.631053	1.455285	10.530206	6.042826	-5.631761	13.119674	-15.332192	0.000000
3.870000	0.000000	0.000000	0.000000	0.000000	0.000000	0.000000	27.589315	-1.791574	-0.020448	0.471573	3.208621	-21.119427	2.101132	-2.330747	0.000000	-10.001990	1.449379	1.280306	10.787493	6.035126	-5.526864	12.864725	-15.242947	0.000000
3.875000	0.000000	0.000000	0.000000	0.000000	0.000000	0.000000	27.930828	-1.678329	-0.136536	1.213753	3.190405	-20.565151	1.944841	-2.302026	0.000000	-10.239088	1.256366	1.095405	11.083639	6.031248	-5.458949	12.615973	-15.075592	0.000000
3.880000	0.000000	0.000000	0.000000	0.000000	0.000000	0.000000	28.282760	-1.494411	-0.225903	2.091001	3.166858	-19.997262	1.772713	-2.434795	0.000000	-10.484558	1.027138	0.864703	11.399220	6.031914	-5.407981	12.335814	-14.870412	0.000000
3.885000	0.000000	0.000000	0.000000	0.000000	0.000000	0.000000	28.628444	-1.295746	-0.323680	3.094197	3.144633	-19.422282	1.593197	-2.480151	0.000000	-10.717245	0.784212	0.689282	11.755577	6.047785	-5.431785	12.026500	-14.596768	0.000000
3.890000	0.000000	0.000000	0.000000	0.000000	0.000000	0.000000	28.929036	-1.108047	-0.433796	4.182038	3.125866	-18.841933	1.477145	-2.413004	0.000000	-10.960532	0.541017	0.553756	12.159616	6.068318	-5.509091	11.703154	-14.198088	0.000000
3.895000	0.000000	0.000000	0.000000	0.000000	0.000000	0.000000	29.192237	-0.891704	-0.518320	5.296593	3.107356	-18.301050	1.383476	-2.407317	0.000000	-11.198742	0.281541	0.372580	12.602355	6.090012	-5.590699	11.361596	-13.805978	0.000000
3.900000	0.000000	0.000000	0.000000	0.000000	0.000000	0.000000	29.393802	-0.674318	-0.587349	6.426686	3.103626	-17.783208	1.298417	-2.378240	0.000000	-11.442642	0.019465	0.205421	13.073880	6.122525	-5.759255	10.920928	-13.435330	0.000000
